<?xml version="1.0" encoding="utf-8"?><svg version="1.1" id="Layer_2" xmlns="http://www.w3.org/2000/svg" xmlns:xlink="http://www.w3.org/1999/xlink" x="0px" y="0px"
	 viewBox="0 0 512.2 320.2" style="enable-background:new 0 0 512.2 320.2;" xml:space="preserve"><a xlink:href="http://logo.webnhanh.com/logo/tripadvisor.svg.html" target="_blank"><style type="text/css">
	.st0{fill:#08808A;}
</style><g><path class="st0" d="M128.2,127.9C92.7,127.9,64,156.6,64,192c0,35.4,28.7,64.1,64.1,64.1c35.4,0,64.1-28.7,64.1-64.1
		C192.3,156.6,163.6,127.9,128.2,127.9z M128.2,237.9c-25.3,0-45.9-20.5-45.9-45.9s20.5-45.9,45.9-45.9S174,166.7,174,192
		S153.5,237.9,128.2,237.9z"/><circle class="st0" cx="128.4" cy="191.9" r="31.9"/><path class="st0" d="M384.2,127.9c-35.4,0-64.1,28.7-64.1,64.1c0,35.4,28.7,64.1,64.1,64.1c35.4,0,64.1-28.7,64.1-64.1
		C448.3,156.6,419.6,127.9,384.2,127.9z M384.2,237.9c-25.3,0-45.9-20.5-45.9-45.9s20.5-45.9,45.9-45.9S430,166.7,430,192
		S409.5,237.9,384.2,237.9z"/><circle class="st0" cx="384.4" cy="191.9" r="31.9"/><path class="st0" d="M474.4,101.2l37.7-37.4h-76.4C392.9,29,321.8,0,255.9,0c-66,0-136.5,29-179.3,63.8H0l37.7,37.4
		C14.4,124.4,0,156.5,0,192c0,70.8,57.4,128.2,128.2,128.2c32.5,0,62.2-12.1,84.8-32.1l43.4,31.9l42.9-31.2l-0.5-1.2
		c22.7,20.2,52.5,32.5,85.3,32.5c70.8,0,128.2-57.4,128.2-128.2C512.2,156.5,497.7,124.4,474.4,101.2z M368,64.8
		c-60.7,7.6-108.3,57.6-111.9,119.5c-3.7-62-51.4-112.1-112.3-119.5c30.6-22,69.6-32.8,112.1-32.8C298.4,32,337.4,42.8,368,64.8z
		 M128.2,288.2C75,288.2,32,245.1,32,192c0-53.1,43.1-96.2,96.2-96.2s96.2,43.1,96.2,96.2C224.3,245.1,181.3,288.2,128.2,288.2z
		 M384.2,288.2c-53.1,0-96.2-43.1-96.2-96.2c0-53.1,43.1-96.2,96.2-96.2s96.2,43.1,96.2,96.2C480.3,245.1,437.3,288.2,384.2,288.2z"
		/></g></a></svg>
