<?xml version="1.0" standalone="no"?>
<!DOCTYPE svg PUBLIC "-//W3C//DTD SVG 20010904//EN"
 "http://www.w3.org/TR/2001/REC-SVG-20010904/DTD/svg10.dtd">
<svg version="1.0" xmlns="http://www.w3.org/2000/svg"
 width="512.000000pt" height="512.000000pt" viewBox="0 0 512.000000 512.000000"
 preserveAspectRatio="xMidYMid meet">
<metadata>
Created by potrace 1.11, written by Peter Selinger 2001-2013
</metadata>
<g transform="translate(0.000000,512.000000) scale(0.100000,-0.100000)"
fill="#000000" stroke="none">
<path d="M525 5105 c-127 -28 -239 -88 -329 -179 -75 -75 -125 -156 -163 -261
l-28 -80 0 -2025 0 -2025 28 -80 c73 -206 217 -349 426 -423 l76 -27 2025 0
2025 0 80 28 c206 73 349 217 423 426 l27 76 0 2025 0 2025 -27 76 c-74 209
-217 353 -423 426 l-80 28 -2000 2 c-1628 1 -2011 -1 -2060 -12z m4066 -336
c79 -37 133 -90 171 -167 l33 -67 0 -1975 0 -1975 -26 -56 c-37 -79 -90 -133
-167 -171 l-67 -33 -1975 0 -1975 0 -61 28 c-76 35 -135 94 -171 172 l-28 60
0 1975 0 1975 28 60 c46 99 131 170 234 194 22 5 876 8 1993 8 l1955 -2 56
-26z"/>
<path d="M1125 4222 c-115 -40 -211 -144 -235 -255 -8 -37 -10 -446 -8 -1437
l3 -1385 28 -57 c37 -75 99 -138 172 -174 l60 -29 1415 0 1415 0 59 29 c76 37
135 96 172 172 l29 59 0 1415 0 1415 -29 59 c-37 76 -96 135 -172 172 l-59 29
-1400 2 c-1309 2 -1403 1 -1450 -15z m2783 -314 c17 -17 17 -2679 0 -2696 -17
-17 -2679 -17 -2696 0 -17 17 -17 2679 0 2696 17 17 2679 17 2696 0z"/>
<path d="M3195 2784 c-85 -31 -155 -132 -155 -224 0 -126 114 -240 240 -240
126 0 240 114 240 240 0 163 -171 280 -325 224z"/>
</g>
</svg>
